<mxfile host="app.diagrams.net" modified="2024-05-26T01:58:35.104Z" agent="Mozilla/5.0 (Windows NT 10.0; Win64; x64) AppleWebKit/537.36 (KHTML, like Gecko) Chrome/124.0.0.0 Safari/537.36 Edg/124.0.0.0" version="24.3.0" etag="_LwCWP4X4gnAMn-ZEgop" type="github">
  <diagram name="Page-1" id="dPeiXFEtEp6ZZ_4jW94l">
    <mxGraphModel>
      <root>
        <mxCell id="0" />
        <mxCell id="1" parent="0" />
      </root>
    </mxGraphModel>
  </diagram>
</mxfile>
